# xmcd
#
# Track frame offsets:
# 150
# 16678
# 29008
# 42431
# 57991
# 72163
# 89107
# 106959
# 122663
#
# Disc length: 1829 seconds
#
#
# Revision: 0
# Processed by: cddbd v1.5.2PL0 Copyright (c) Steve Scherf et al.
# Submitted via: FreeRIP 2.931 
#
DISCID=79072309
DTITLE=Gold City - Super Southern Gospel: Gold City
DYEAR=2005
DGENRE=Contemporary Christian
TTITLE0=I Believe
TTITLE1=Amazing Grace
TTITLE2=When He Knocked On The Door Of My Heart
TTITLE3=I Love To Tell The Story
TTITLE4=It's Gonna Be A Good Day
TTITLE5=Pass Me Not
TTITLE6=Lamb Upon The Throne
TTITLE7=He Said
TTITLE8=Old Rugged Cross
EXTD=
EXTT0=
EXTT1=
EXTT2=
EXTT3=
EXTT4=
EXTT5=
EXTT6=
EXTT7=
EXTT8=
PLAYORDER=
